<svg width="48" height="48" viewBox="0 0 48 48" fill="none" xmlns="http://www.w3.org/2000/svg">
<path d="M20.3846 41.3422C17.1183 39.3465 10.7996 35.4874 9.87156 34.9185C8 33.6486 8 31.6224 8 31.6224L8.00053 16.3801C8.00053 16.3801 8 14.1754 9.88809 13.0689L20.3841 6.65548C24.0008 4.44745 24.0008 4.44745 27.6234 6.65982L38.1044 13.064C40.0016 14.2318 40 16.3763 40 16.3763V31.6235C40 31.6235 40.0016 33.7458 38.1044 34.9337L27.6196 41.34C24.0008 43.553 24.0008 43.553 20.3846 41.3422Z" fill="url(#paint0_linear)"/>
<path fill-rule="evenodd" clip-rule="evenodd" d="M32.5101 16.5684L26.3103 24.3179L32.5058 32.0615H27.8864L24.0009 27.2046L20.1154 32.0615H15.4959L21.6914 24.3179L15.4922 16.5684H20.1111L24.0009 21.4312L27.8907 16.5684H32.5101V16.5684Z" fill="white"/>
<defs>
<linearGradient id="paint0_linear" x1="8" y1="43" x2="8" y2="5" gradientUnits="userSpaceOnUse">
<stop stop-color="#FDAC42"/>
<stop offset="1" stop-color="#FDD341"/>
</linearGradient>
</defs>
</svg>
