<svg id="Layer_1" data-name="Layer 1" xmlns="http://www.w3.org/2000/svg" xmlns:xlink="http://www.w3.org/1999/xlink" viewBox="0 0 2000 2000"><defs><style>.cls-1{fill:url(#linear-gradient);}.cls-2{fill:url(#linear-gradient-2);}.cls-3{fill:url(#linear-gradient-3);}.cls-4{fill:url(#linear-gradient-4);}.cls-5{fill:url(#linear-gradient-5);}.cls-6{fill:url(#linear-gradient-6);}.cls-7{fill:url(#linear-gradient-7);}.cls-8{fill:url(#linear-gradient-8);}.cls-9{fill:url(#linear-gradient-9);}.cls-10{fill:url(#linear-gradient-10);}.cls-11{fill:url(#Íîâûé_îáðàçåö_ãðàäèåíòà_5);}.cls-12{fill:url(#linear-gradient-11);}.cls-13{fill:#ff0;}.cls-14{fill:url(#linear-gradient-12);}.cls-15{fill:url(#linear-gradient-13);}.cls-16{fill:url(#linear-gradient-14);}.cls-17{fill:url(#linear-gradient-15);}.cls-18{fill:url(#linear-gradient-16);}.cls-19{fill:url(#linear-gradient-17);}.cls-20{fill:url(#linear-gradient-18);}.cls-21{fill:url(#linear-gradient-19);}.cls-22{fill:url(#linear-gradient-20);}.cls-23{fill:#680404;}.cls-24{fill:url(#linear-gradient-21);}.cls-25{fill:url(#linear-gradient-22);}.cls-26{fill:red;}</style><linearGradient id="linear-gradient" x1="1120.73" y1="525.76" x2="1115.75" y2="1910.72" gradientUnits="userSpaceOnUse"><stop offset="0" stop-color="#ffae00"/><stop offset="1" stop-color="#ff1300"/></linearGradient><linearGradient id="linear-gradient-2" x1="1072.23" y1="1485.05" x2="1112.82" y2="1723.9" gradientUnits="userSpaceOnUse"><stop offset="0" stop-color="#ff1300"/><stop offset="0.99" stop-color="#d12026"/></linearGradient><linearGradient id="linear-gradient-3" x1="1087.49" y1="536.63" x2="1113.8" y2="1605.25" gradientUnits="userSpaceOnUse"><stop offset="0" stop-color="#ff1300"/><stop offset="1" stop-color="#a01310"/></linearGradient><linearGradient id="linear-gradient-4" x1="926.05" y1="465.78" x2="921.07" y2="1850.74" xlink:href="#linear-gradient"/><linearGradient id="linear-gradient-5" x1="893.61" y1="1484.84" x2="934.2" y2="1723.68" xlink:href="#linear-gradient-2"/><linearGradient id="linear-gradient-6" x1="893.02" y1="486.8" x2="919.33" y2="1555.42" xlink:href="#linear-gradient-3"/><linearGradient id="linear-gradient-7" x1="760.48" y1="50.66" x2="755.51" y2="1435.62" gradientTransform="translate(-284.24 579.16) rotate(-8.64)" xlink:href="#linear-gradient"/><linearGradient id="linear-gradient-8" x1="780.98" y1="694.65" x2="745.84" y2="1195.01" gradientTransform="translate(-284.24 579.16) rotate(-8.64)" xlink:href="#linear-gradient-2"/><linearGradient id="linear-gradient-9" x1="735.79" y1="79.4" x2="762.1" y2="1148.01" gradientTransform="translate(-284.24 579.16) rotate(-8.64)" xlink:href="#linear-gradient-3"/><linearGradient id="linear-gradient-10" x1="1029.52" y1="706.18" x2="1032.54" y2="1629.58" gradientUnits="userSpaceOnUse"><stop offset="0" stop-color="#ffae00"/><stop offset="0.25" stop-color="#ff8700"/><stop offset="1" stop-color="#ff1300"/></linearGradient><linearGradient id="Íîâûé_îáðàçåö_ãðàäèåíòà_5" x1="1027.63" y1="819.32" x2="1027.63" y2="1334.57" gradientUnits="userSpaceOnUse"><stop offset="0.1" stop-color="#ffc700"/><stop offset="0.15" stop-color="#ffc100"/><stop offset="0.73" stop-color="#ff6b00"/><stop offset="1" stop-color="#ff4900"/></linearGradient><linearGradient id="linear-gradient-11" x1="1079.19" y1="1458.04" x2="1119.78" y2="1696.89" xlink:href="#linear-gradient-2"/><linearGradient id="linear-gradient-12" x1="1027.95" y1="610.49" x2="1033.43" y2="1608.43" xlink:href="#linear-gradient-3"/><linearGradient id="linear-gradient-13" x1="1260.67" y1="139.94" x2="1260.67" y2="353.34" xlink:href="#linear-gradient-10"/><linearGradient id="linear-gradient-14" x1="1236.1" y1="228.55" x2="1285.22" y2="228.55" xlink:href="#linear-gradient-3"/><linearGradient id="linear-gradient-15" x1="640.12" y1="518" x2="642.99" y2="834.52" xlink:href="#linear-gradient-10"/><linearGradient id="linear-gradient-16" x1="616.24" y1="598.78" x2="665.36" y2="598.78" xlink:href="#linear-gradient-3"/><linearGradient id="linear-gradient-17" x1="1170.88" y1="1811.85" x2="1175" y2="2521.2" gradientTransform="translate(589.53 -859.6) rotate(12.41)" xlink:href="#linear-gradient-10"/><linearGradient id="linear-gradient-18" x1="1203.99" y1="1018.26" x2="1209.47" y2="2016.19" gradientTransform="translate(351.96 -559.63) rotate(7.89)" xlink:href="#linear-gradient-3"/><linearGradient id="linear-gradient-19" x1="1237.89" y1="1811.46" x2="1242" y2="2520.81" gradientTransform="translate(589.53 -859.6) rotate(12.41)" xlink:href="#linear-gradient-10"/><linearGradient id="linear-gradient-20" x1="1254.19" y1="1017.98" x2="1259.67" y2="2015.92" gradientTransform="translate(351.96 -559.63) rotate(7.89)" xlink:href="#linear-gradient-3"/><linearGradient id="linear-gradient-21" x1="1096.44" y1="1812.28" x2="1100.55" y2="2521.63" gradientTransform="translate(589.53 -859.6) rotate(12.41)" xlink:href="#linear-gradient-10"/><linearGradient id="linear-gradient-22" x1="1112.31" y1="1018.76" x2="1117.79" y2="2016.7" gradientTransform="translate(351.96 -559.63) rotate(7.89)" xlink:href="#linear-gradient-3"/></defs><title>peace</title><path class="cls-1" d="M1133.07,1563s19.22,77-8.31,187.71c0,0,74.14,4.23,75.72,54s-129.74,19.07-145.63-10.06,16.05-127.3-22.42-173.54Z"/><path class="cls-2" d="M1138.36,1587.78s-52.39,22.66-61.36,62.78-27.38,124.61,6.61,145.85,98.61,36.76,112.08,8.47l4.81,9.46s-10.09,26.78-66.39,15.11-84-24.55-84-52.4,4.24-139.24-15.58-157.64l98.55-56.41"/><path class="cls-3" d="M1157.32,1835.9c-15.2,0-33-2.63-51.09-7.74-10.69-3-46.3-14.18-55.59-31.2-6.92-12.7-5.71-35.51-4.31-61.92,2-37.56,4.48-84.32-17.59-110.85A4.78,4.78,0,0,1,1030,1617l100.64-58.13a4.8,4.8,0,0,1,7.06,3c.78,3.15,18.59,77-7,184.64a141.21,141.21,0,0,1,33,8.11c26.45,10.27,40.8,27.56,41.52,50,.45,14-8.28,24.21-24.56,28.64A90.76,90.76,0,0,1,1157.32,1835.9Zm-117.77-213.35c20.79,29.73,18.35,75.7,16.36,113-1.27,23.92-2.47,46.51,3.16,56.81,10.46,19.2,83.44,41.29,119.13,31.59,17.94-4.88,17.6-15.56,17.49-19.07-1.43-44.88-70.51-49.34-71.21-49.38a4.8,4.8,0,0,1-4.38-6c22.51-90.45,13.34-158.64,9.61-179.07Z"/><path class="cls-4" d="M905.17,1504.31s-19.22,77,8.31,187.71c0,0-74.14,4.23-75.72,54S967.5,1765.1,983.39,1736s-16-127.3,22.42-173.54Z"/><path class="cls-5" d="M900,1540.38s51,4.86,62.5,65.25,18,104.17,0,114.53-115.26,56-120,26c0,0-15,23.74,35.91,27.51s110.31-29.74,107.48-55.14-10.41-138.69,19.87-156.13l-100.64-58.12"/><path class="cls-6" d="M880.92,1777.21a90.7,90.7,0,0,1-23.4-2.69c-16.28-4.43-25-14.6-24.56-28.64.72-22.43,15.07-39.71,41.52-50a141.66,141.66,0,0,1,33-8.11c-25.6-107.65-7.79-181.49-7-184.63a4.81,4.81,0,0,1,7.06-3l100.64,58.13a4.78,4.78,0,0,1,1.29,7.22c-22.07,26.53-19.59,73.29-17.59,110.85,1.4,26.41,2.61,49.22-4.31,61.92-9.29,17-44.9,28.19-55.59,31.2C913.91,1774.58,896.11,1777.21,880.92,1777.21Zm27.62-265.42c-3.73,20.46-12.87,88.76,9.6,179.07a4.8,4.8,0,0,1-.79,4,4.85,4.85,0,0,1-3.59,2c-.7,0-69.78,4.59-71.21,49.38-.11,3.51-.45,14.19,17.49,19.07,35.7,9.71,108.67-12.39,119.14-31.59,5.62-10.3,4.42-32.89,3.15-56.81-2-37.3-4.43-83.27,16.36-113Z"/><path class="cls-7" d="M607.34,1139.53c-3.83,84.72-32.4,197-44.35,228.44s-44.45,105.11-.38,128.62,118.45-100.25,110.81-150.53"/><path class="cls-8" d="M599.36,1242.3s44.14,82.53,41.68,139.31-66.24,120-92.52,92.52l9.59,22.14,34,.92L642.66,1443l35.51-97.7s-65.44-76.77-73.32-173.14"/><path class="cls-9" d="M579.65,1503.91a30.53,30.53,0,0,1-19.3-3.08c-19.69-10.51-27.78-31.08-24-61.13,3-24,13-49.67,19.57-66.64,1-2.43,1.84-4.71,2.63-6.8,10.56-27.73,40.09-139.53,44-227a4.8,4.8,0,1,1,9.59.43c-3.74,82.68-31.47,195.27-44.66,229.94-.8,2.1-1.7,4.4-2.66,6.86-13,33.51-37.32,95.88,0,115.82,8.76,4.68,19.69,2.46,32.47-6.58,37.45-26.5,76.79-103.14,71.34-139a4.8,4.8,0,0,1,9.49-1.44c6,39.29-34.84,119.66-75.28,148.27C594,1499.9,586.25,1502.9,579.65,1503.91Z"/><path class="cls-10" d="M851.28,497.44S831.39,688.12,717,840.67s-170.79,406.25-36.48,550.51,320,227.46,343.24,227.46,210.58-76.57,359.82-227.46,34.82-447.7,26.53-454.33-29.85,8.29-46.43-74.62-51.4-182.4-64.67-182.4,3.32,61.36-31.5,58-43.11-134.31-91.2-223.85-91.49-124.36-145.23-174.11-50.43-127.67-50.43-127.67-77.93,92.85-44.77,223.85,39.79,164.15,1.66,174.1S922.58,499.1,851.28,497.44Z"/><path class="cls-11" d="M1014,398.5s54.91,174.72,148.1,284.54,84.86,87.62,138.11,207.71,73.81,101.79,77.14,123.42,56.56,571.61-349.71,542.94S668.67,1094.88,683.65,1030,799.3,854.43,825.92,789.54,882.5,666.4,894.15,663.07s5,39.94,59.9,36.61S999,608.16,1007.3,606.5s11.65,109.82,43.26,83.2S974,353.57,1014,398.5Z"/><path class="cls-12" d="M1381.29,1345.16c-149.24,150.89-247.58,211.95-353.7,211.95S799.67,1482.3,665.36,1338c-46.18-49.6-54.68-139.47-61.17-206.39-8.6,96.19,12,190.42,76.3,259.53,134.31,144.26,320,227.46,343.24,227.46s210.58-76.57,359.82-227.46c68.58-69.35,81.48-169.51,74.58-258.17C1452.55,1197.67,1429.62,1296.29,1381.29,1345.16Z"/><path class="cls-13" d="M979.69,218.38s-14.6,80.19,38.86,134.34S1173.66,455.53,1211.35,607c0,0-50.72-167.24-148-237.15S979.69,218.38,979.69,218.38Z"/><path class="cls-13" d="M855.5,502.51s29.12,12.23,32.16,46.61,23.79,66.16,46.9,66.4c0,0-18.28-10.1-23.76-39.93S896.39,505.53,855.5,502.51Z"/><path class="cls-13" d="M1267,742.65s36.13,7.24,42.66-40.56c0,0-1.56-25.62-10.7-22.26S1300.07,741.9,1267,742.65Z"/><path class="cls-14" d="M1023.73,1623.44c-14.36,0-71-24.23-132.39-60.3-57.68-33.87-141.69-90.64-214.36-168.69-32.64-35.07-55.59-78-68.19-127.51-11.51-45.29-14.24-95.24-8.09-148.46C612,1020.25,653,918,713.14,837.79,771.8,759.57,805,671,822.42,610.52c18.94-65.57,24-113.11,24.09-113.58a4.84,4.84,0,0,1,4.89-4.3c44.22,1,55.17,44.54,63.16,76.31,4.14,16.43,8.05,32,14.87,36,1.2.71,3.22,1.55,6.87.6,15.27-4,23.35-11,22.32-36.83-1-25.62-11-66.76-27.42-131.46a269.17,269.17,0,0,1,10.12-163.95c15.45-39.87,34.81-63.18,35.62-64.16a4.8,4.8,0,0,1,8.47,3.29c0,.76-2.53,76.36,48.9,124,5.23,4.85,10.37,9.55,15.42,14.17,46.68,42.75,87,79.66,130.78,161.19,22,41,35.51,89.59,47.4,132.45,12.48,44.94,24.26,87.39,40,88.89,4.58.44,8.09-.43,10.74-2.66,6.79-5.68,7.95-19.86,8.87-31.26,1-12.41,2-24.13,11.44-24.13,4,0,13.27,0,35.62,63.3a957.6,957.6,0,0,1,33.75,122.95c12.68,63.4,27.53,66.62,36.4,68.54,2.85.61,5.8,1.25,8.32,3.27,4.42,3.53,16,34,25.38,66.52,9.64,33.54,21.83,85.75,25.22,144.08,2.83,48.59-1,93.12-11.28,132.36-12.43,47.29-34.44,87.16-65.43,118.49-80.41,81.31-168.51,137.94-228.25,171.14C1090.89,1603.37,1036.74,1623.44,1023.73,1623.44ZM855.5,502.51c-1.76,13.56-8.07,56-23.86,110.67-17.7,61.28-51.29,151-110.83,230.37-59.12,78.83-99.43,179.44-110.58,276-8.86,76.75-3.25,185.59,73.78,268.33,134.54,144.51,319.43,225.93,339.72,225.93,10.25,0,62.56-18.89,130.32-56.54,59.2-32.89,146.47-89,226.09-169.5,75.65-76.49,80.57-191.13,71.38-273.83-10.45-94-40-166.8-44.69-173.55a15.83,15.83,0,0,0-4.11-1.22c-15.11-3.27-30.94-11.83-43.78-76A952.52,952.52,0,0,0,1326.76,745c-14.34-41.32-23.77-56.72-27.5-59.9-1.16,2.64-1.75,9.87-2.15,14.85-1.08,13.18-2.41,29.58-12.27,37.84-4.66,3.9-10.65,5.54-17.82,4.86-22.33-2.13-33.25-41.46-48.35-95.89-11.76-42.37-25.09-90.39-46.62-130.47-43-80.09-82.77-116.5-128.8-158.65q-7.61-6.94-15.46-14.2c-41.21-38.15-49.9-91.48-51.62-116.91a262.25,262.25,0,0,0-26,50.59,259.57,259.57,0,0,0-9.64,157.79c31.88,125.92,42.62,168.34-1.78,179.92-5.27,1.38-10,.83-14.18-1.62-10.26-6.08-14.44-22.69-19.28-41.92C897.54,540.61,888.83,506,855.5,502.51ZM1406.67,940.2Z"/><path class="cls-13" d="M855.46,621.65s-32,123.75-109.32,242.78C746.14,864.43,824.84,790,855.46,621.65Z"/><path class="cls-13" d="M1150.51,523.61s32.2,42.1,35.44,106.95C1186,630.56,1165.3,557.74,1150.51,523.61Z"/><path class="cls-13" d="M1205,669.21s5.6,74.9,44.89,99.58C1249.86,768.79,1217.89,729.18,1205,669.21Z"/><path class="cls-15" d="M1260.13,168.9s-22,8.75-18.94,43.34,26.86,46.91,29.94,76c0,0,17.61-44.91,4.4-67.36S1257,179,1260.13,168.9Z"/><path class="cls-16" d="M1271.13,293a4.72,4.72,0,0,1-.64-.05,4.79,4.79,0,0,1-4.13-4.24c-1.35-12.71-7.13-22.18-13.25-32.21-7-11.51-15-24.54-16.69-43.85-3.37-37.71,20.9-47.81,21.93-48.22a4.8,4.8,0,0,1,6.36,5.86c-2.1,6.9.56,23.64,15,48.12,14.23,24.18-3.32,69.62-4.07,71.54A4.81,4.81,0,0,1,1271.13,293Zm-16.48-114.12c-4.92,5.4-10.24,15.41-8.68,32.92,1.52,17.07,8.54,28.57,15.33,39.7,3.7,6.05,7.46,12.23,10.29,19.22,3.73-14.33,7.08-35.09-.19-47.45C1261.49,206.43,1255.65,190.75,1254.65,178.89Z"/><path class="cls-17" d="M640.27,539.13s-22,8.75-18.93,43.34,26.85,46.91,29.93,76c0,0,17.62-44.91,4.41-67.36S637.19,549.25,640.27,539.13Z"/><path class="cls-18" d="M651.28,663.24a4.74,4.74,0,0,1-.65,0,4.8,4.8,0,0,1-4.13-4.25c-1.34-12.7-7.13-22.17-13.25-32.21-7-11.5-15-24.53-16.69-43.84-3.36-37.72,20.9-47.81,21.94-48.22a4.8,4.8,0,0,1,6.36,5.85c-2.1,6.91.55,23.65,14.95,48.13,14.23,24.18-3.31,69.62-4.07,71.54A4.81,4.81,0,0,1,651.28,663.24ZM634.79,549.12c-4.91,5.4-10.23,15.41-8.67,32.92,1.52,17.07,8.54,28.57,15.32,39.7,3.7,6,7.47,12.23,10.3,19.22,3.72-14.34,7.07-35.1-.2-47.45C641.63,576.66,635.8,561,634.79,549.12Z"/><ellipse cx="1113.78" cy="1065.57" rx="28.88" ry="106.63"/><ellipse cx="855.46" cy="1086.77" rx="28.88" ry="106.63"/><path d="M780.06,898.29a7.54,7.54,0,0,1-6.32-11.64c1.09-1.68,27.34-41.21,75.68-31.39a7.54,7.54,0,0,1-3,14.78c-38.39-7.8-59.81,24.49-60,24.81A7.52,7.52,0,0,1,780.06,898.29Z"/><path d="M1160.31,825.56a7.53,7.53,0,0,1-6.32-3.41h0c-.88-1.34-21.92-32.58-60-24.84a7.54,7.54,0,1,1-3-14.78c48.33-9.81,74.58,29.71,75.68,31.39a7.54,7.54,0,0,1-6.32,11.64Z"/><path class="cls-19" d="M1304.72,1382.6S1377.3,1246,1429,1272.41s-73.83,176.32-73.83,176.32,46.34,40.21,33,94.79-69.46,82.25-145.79,65.45-130.29-111.11-28.17-178.77c0,0-55.19-184.28,6-204.8S1304.72,1382.6,1304.72,1382.6Z"/><path class="cls-20" d="M1258.73,1617.48q-8.61-1.2-17.52-3.15c-44.07-9.7-80-43.87-87.27-83.1-4.12-22.07-2.4-64.48,53.9-103.34-3.44-12.2-13.91-51.29-19-91.71-8.54-67.5,1.42-106.53,29.61-116,10.44-3.5,20.54-2.27,30,3.66,35.27,22,53.17,106.73,59.26,142.32a470.1,470.1,0,0,1,35.45-52c34.52-43.26,64.24-59,88.33-46.66,7.93,4,12.88,10.65,14.71,19.63,9,44.28-66.43,140.11-83.55,161.13,11.37,11.5,42.62,48.41,30.84,96.55-7,28.79-25.13,50.63-52.31,63.17C1318.22,1618.6,1290,1621.81,1258.73,1617.48Zm-25.89-388a23.7,23.7,0,0,0-10.92,1.16c-46,15.44-17.37,148.17-2.44,198a5.5,5.5,0,0,1-2.23,6.16c-40.24,26.66-58.89,60.2-52.51,94.44,6.52,35,38.94,65.6,78.83,74.38,71.62,15.78,126.3-8.33,139.27-61.38,12.41-50.74-30.81-89-31.25-89.34a5.5,5.5,0,0,1-.61-7.68c26-31.06,91.86-119.61,84.48-155.86a16.35,16.35,0,0,0-8.94-12c-38.48-19.66-97.46,71.22-116.94,107.88a5.53,5.53,0,0,1-5.83,2.82,5.48,5.48,0,0,1-4.47-4.68c-.17-1.25-17-125.39-56.63-150.15A24.87,24.87,0,0,0,1232.84,1229.45Z"/><path class="cls-21" d="M1389.56,1510.58s-75.13-62.29-102.8-19.34,34.8,94.82,81.94,90C1368.7,1581.23,1394.24,1558.76,1389.56,1510.58Z"/><path class="cls-22" d="M1352,1586.29c-26.72-3.7-54.66-20.91-68.75-43.87-11.31-18.44-11.69-37.67-1.08-54.15,6.21-9.64,15-15.39,26-17.1,35.4-5.46,82.89,33.52,84.9,35.18a5.49,5.49,0,0,1,2,3.7c4.9,50.4-21.58,74.31-22.71,75.3a5.39,5.39,0,0,1-3.06,1.34A72.32,72.32,0,0,1,1352,1586.29Zm-30-104.2a42.1,42.1,0,0,0-12.17-.06c-7.93,1.23-14,5.21-18.46,12.18-10.52,16.33-5.15,32.11,1.21,42.47,14.56,23.73,47.23,41,73.68,39.24,4.67-4.9,21-24.87,18-62.52C1376.87,1507.59,1347.35,1485.6,1322,1482.09Z"/><polyline class="cls-23" points="936.91 1222.67 1036.15 1206.69 1036.15 1247.12 1007.86 1271.26 949.98 1269.87"/><path class="cls-24" d="M1148.44,1495.82c4.59-38,60.13-28.1,76.41-16.11s21.9,40.55,3.14,52.54S1143.33,1538.13,1148.44,1495.82Z"/><path class="cls-25" d="M1190.09,1542.3c-10.21-1.41-20.4-4.59-28.67-9.79-14-8.76-20.32-21.68-18.43-37.35h0c1.57-13,8.6-22.58,20.33-27.64,20.87-9,52.31-1.42,64.78,7.77a43.63,43.63,0,0,1,17.13,35.67c-.37,11.06-5.44,20.26-14.28,25.91C1222.35,1542.38,1206.21,1544.53,1190.09,1542.3Zm-36.2-45.82c-1.36,11.31,3.14,20.3,13.37,26.73,18,11.31,47.84,10.76,57.78,4.41,7.3-4.67,9-11.83,9.21-17,.33-10-4.76-20.64-12.66-26.47-10.28-7.57-37.44-13.65-53.91-6.53-8.17,3.53-12.68,9.7-13.79,18.88Z"/><path class="cls-26" d="M954.34,1263.82s22-29.76,78.17-18.27l-7.5,24.32-37.68,16-22.59-3.63"/><path d="M1048.29,1198.56a7.84,7.84,0,0,0-9-4.68,8.64,8.64,0,0,0-4.35,1.6c-49.21,19.45-87.51,17-98.88,15.68a8.63,8.63,0,0,0-10.36,1.51,7.83,7.83,0,0,0-2.33,4.18c0,.23,0,.45-.06.67s0,.2,0,.3a5.81,5.81,0,0,0,0,.72,8.46,8.46,0,0,0,.29,2.43c.89,3.3,22.36,80.75,73.73,73,48.94-7.34,51.29-81.31,51.39-90.68A7.78,7.78,0,0,0,1048.29,1198.56ZM994.7,1276.9c-26.79,4-43.67-30.72-50.7-49.27,2.68.14,5.69.23,9,.23,18,0,45.2-2.59,77.65-14C1028.75,1233.69,1021.57,1272.87,994.7,1276.9Z"/></svg>