<svg id="Layer_1" data-name="Layer 1" xmlns="http://www.w3.org/2000/svg" xmlns:xlink="http://www.w3.org/1999/xlink" viewBox="0 0 2000 2000"><defs><style>.cls-1{fill:#ffb64d;}.cls-2{fill:#c42905;}.cls-3{fill:#fff;}.cls-4{fill:#ffcc80;}.cls-5{fill:url(#linear-gradient);}.cls-6{fill:#e08917;}.cls-7{fill:url(#linear-gradient-2);}</style><linearGradient id="linear-gradient" x1="1126.17" y1="1278.38" x2="1126.87" y2="1566.72" gradientUnits="userSpaceOnUse"><stop offset="0" stop-color="#731004"/><stop offset="1" stop-color="#c42905"/></linearGradient><linearGradient id="linear-gradient-2" x1="873.45" y1="1278.99" x2="874.14" y2="1567.33" xlink:href="#linear-gradient"/></defs><title>Dai</title><polygon class="cls-1" points="1000 259.89 294.19 960.82 1000 1213.67 1705.81 960.82 1000 259.89"/><path class="cls-2" d="M1000,1224.87a11.14,11.14,0,0,1-3.78-.66L290.42,971.35a11.19,11.19,0,0,1-4.11-18.48L992.11,252a11.21,11.21,0,0,1,15.78,0l705.8,700.92a11.19,11.19,0,0,1-4.11,18.48l-705.8,252.86A11.14,11.14,0,0,1,1000,1224.87ZM314.67,956.26,1000,1201.78l685.33-245.52L1000,275.67Z"/><polygon class="cls-3" points="1000 462.57 489.25 967.72 798.5 967.72 1000 769.02 1201.5 967.72 1510.75 967.72 1000 462.57"/><polygon class="cls-4" points="1000 1213.67 294.19 960.82 1000 1671.02 1705.81 960.82 1000 1213.67"/><polygon class="cls-1" points="1000 1283.07 1598.7 1068.59 1705.81 960.82 1000 1213.67 294.19 960.82 401.3 1068.59 1000 1283.07"/><path class="cls-2" d="M1000,1682.21a11.21,11.21,0,0,1-7.94-3.3L286.25,968.71A11.2,11.2,0,0,1,298,950.28l702,251.5,702-251.5a11.2,11.2,0,0,1,11.72,18.43l-705.81,710.2A11.21,11.21,0,0,1,1000,1682.21ZM337.05,988.06l663,667.08,663-667.08-659.17,236.15a11.15,11.15,0,0,1-7.56,0Z"/><ellipse class="cls-5" cx="1126.36" cy="1357.04" rx="28.92" ry="91.35"/><ellipse class="cls-1" cx="1399.61" cy="1578.21" rx="48.75" ry="153.97" transform="translate(-347.94 396.81) rotate(-14.37)"/><path class="cls-6" d="M1384,1621.9c-21.11-82.37-17.07-154.57,9-161.25a18.46,18.46,0,0,1,11.37,1c-15-23.18-30.38-35.81-43-32.58-26.08,6.68-30.11,78.88-9,161.25,18.21,71,49.16,126.45,74.07,136.06C1410.42,1701.52,1394.9,1664.52,1384,1621.9Z"/><path class="cls-2" d="M1433.74,1737.67c-35.29,0-71.81-70.68-90.84-144.93-10.45-40.78-15.24-80.56-13.48-112,2.51-45,17.45-58.08,29.54-61.18,37.22-9.54,77.16,65.28,97.36,144.11,10.45,40.78,15.24,80.55,13.49,112-2.51,45-17.45,58.09-29.55,61.19A26.36,26.36,0,0,1,1433.74,1737.67Zm-68.38-299.3a6.17,6.17,0,0,0-1.53.18c-6.28,1.61-13.31,15.62-14.85,43.3-1.65,29.48,2.93,67.13,12.9,106s24.06,74.11,39.68,99.17c14.66,23.52,27.56,32.44,33.84,30.82s13.3-15.62,14.85-43.3c1.64-29.48-2.94-67.14-12.9-106h0c-10-38.89-24.06-74.11-39.68-99.17C1384.11,1447.62,1372.06,1438.37,1365.36,1438.37Z"/><ellipse class="cls-1" cx="641.42" cy="1590.37" rx="153.97" ry="48.75" transform="matrix(0.2, -0.98, 0.98, 0.2, -1045.79, 1897.04)"/><path class="cls-6" d="M672.54,1439.58c-12.57-2.59-27.19,10.42-40.9,33.77a17.61,17.61,0,0,1,9.31-.74c26.37,5.44,33.81,77.36,16.62,160.64-9,43.55-22.93,81.57-38,107.17,24.86-8.46,54.32-66.4,69.55-140.19C706.35,1517,698.91,1445,672.54,1439.58Z"/><path class="cls-2" d="M613.62,1751.3a26.65,26.65,0,0,1-5.31-.54c-37.64-7.77-40.68-92.52-24.22-172.22,8.51-41.24,21.66-79.07,37-106.54,22-39.3,41.19-44.53,53.41-42,37.64,7.77,40.67,92.52,24.22,172.22l-9.59-2,9.59,2C683.08,1678.15,649.33,1751.3,613.62,1751.3Zm55.74-302.24c-6.64,0-18.42,9.76-31.14,32.5-14.42,25.77-26.83,61.62-35,100.94s-10.91,77.15-7.88,106.52c2.86,27.57,10.54,41.24,16.88,42.55s18.81-8.2,32.35-32.39c14.42-25.77,26.83-61.61,35-100.93s10.91-77.15,7.87-106.53c-2.85-27.57-10.53-41.23-16.87-42.54A5.91,5.91,0,0,0,669.36,1449.06Z"/><ellipse class="cls-7" cx="873.64" cy="1357.04" rx="28.92" ry="91.35"/></svg>